<svg preserveAspectRatio="none" width="100%" height="100%" overflow="visible" style="display: block;" viewBox="0 0 28 28" fill="none" xmlns="http://www.w3.org/2000/svg">
<g id="Icon">
<path id="Vector" d="M2.33333 11.0834C2.33336 9.78512 2.72719 8.51739 3.46282 7.44765C4.19845 6.37792 5.24127 5.55648 6.45354 5.09185C7.66582 4.62721 8.99052 4.54123 10.2527 4.84526C11.5148 5.1493 12.6551 5.82904 13.5228 6.79471C13.584 6.86006 13.6578 6.91216 13.7399 6.94778C13.822 6.9834 13.9105 7.00178 14 7.00178C14.0895 7.00178 14.178 6.9834 14.2601 6.94778C14.3422 6.91216 14.416 6.86006 14.4772 6.79471C15.3422 5.82276 16.4827 5.13731 17.7469 4.82958C19.0111 4.52185 20.3391 4.60645 21.554 5.07211C22.769 5.53777 23.8133 6.36241 24.548 7.43627C25.2827 8.51012 25.6729 9.78227 25.6667 11.0834C25.6667 13.755 23.9167 15.75 22.1667 17.5L15.7593 23.6985C15.5419 23.9482 15.2739 24.1488 14.9731 24.2869C14.6722 24.425 14.3454 24.4975 14.0143 24.4996C13.6833 24.5017 13.3556 24.4334 13.053 24.2991C12.7504 24.1648 12.4799 23.9676 12.2593 23.7207L5.83333 17.5C4.08333 15.75 2.33333 13.7667 2.33333 11.0834Z" stroke="var(--stroke-0, #E63946)" stroke-width="2.33333" stroke-linecap="round" stroke-linejoin="round"/>
</g>
</svg>
