<svg preserveAspectRatio="none" width="100%" height="100%" overflow="visible" style="display: block;" viewBox="0 0 20 20" fill="none" xmlns="http://www.w3.org/2000/svg">
<g id="Icon">
<path id="Vector" d="M9.16667 11.6667H10.8333C11.2754 11.6667 11.6993 11.4911 12.0118 11.1785C12.3244 10.8659 12.5 10.442 12.5 10C12.5 9.55797 12.3244 9.13405 12.0118 8.82149C11.6993 8.50893 11.2754 8.33333 10.8333 8.33333H8.33333C7.83333 8.33333 7.41667 8.5 7.16667 8.83333L2.5 13.3333" stroke="var(--stroke-0, #1D3557)" stroke-opacity="0.7" stroke-width="1.66667" stroke-linecap="round" stroke-linejoin="round"/>
<path id="Vector_2" d="M12.0417 11.1583L16.25 7.24668C16.83 6.66668 17.5 5.70834 17.5 4.79168C17.5001 4.3278 17.3594 3.87482 17.0966 3.4926C16.8337 3.11039 16.4611 2.81694 16.0279 2.65105C15.5947 2.48516 15.1213 2.45463 14.6704 2.56351C14.2195 2.67239 13.8123 2.91555 13.5025 3.26084C13.481 3.28423 13.4548 3.30289 13.4257 3.31566C13.3966 3.32842 13.3651 3.33501 13.3333 3.33501C13.3015 3.33501 13.2701 3.32842 13.241 3.31566C13.2119 3.30289 13.1857 3.28423 13.1642 3.26084C12.8544 2.91555 12.4471 2.67239 11.9962 2.56351C11.5453 2.45463 11.072 2.48516 10.6388 2.65105C10.2056 2.81694 9.83293 3.11039 9.57008 3.4926C9.30723 3.87482 9.16656 4.3278 9.16667 4.79168C9.16667 5.79168 9.835 6.66501 10.4167 7.24668L13.3333 9.95834" stroke="var(--stroke-0, #1D3557)" stroke-opacity="0.7" stroke-width="1.66667" stroke-linecap="round" stroke-linejoin="round"/>
<path id="Vector_3" d="M1.66667 12.5L6.66667 17.5" stroke="var(--stroke-0, #1D3557)" stroke-opacity="0.7" stroke-width="1.66667" stroke-linecap="round" stroke-linejoin="round"/>
<path id="Vector_4" d="M5.83333 16.6667L7.16667 15.5C7.41667 15.1667 7.83333 15 8.33333 15H11.6667C12.5833 15 13.4167 14.6667 14 14L17.8333 10.3333C18.1549 10.0294 18.3426 9.61025 18.3551 9.16797C18.3676 8.7257 18.2039 8.29657 17.9 7.975C17.5961 7.65342 17.1769 7.46574 16.7346 7.45324C16.2924 7.44073 15.8632 7.60444 15.5417 7.90833" stroke="var(--stroke-0, #1D3557)" stroke-opacity="0.7" stroke-width="1.66667" stroke-linecap="round" stroke-linejoin="round"/>
</g>
</svg>
