<svg width="20" height="20" viewBox="0 0 20 20" fill="none" xmlns="http://www.w3.org/2000/svg">
<path d="M9.16667 11.6667H10.8333C11.2754 11.6667 11.6993 11.4911 12.0118 11.1785C12.3244 10.866 12.5 10.442 12.5 10C12.5 9.55798 12.3244 9.13406 12.0118 8.8215C11.6993 8.50894 11.2754 8.33334 10.8333 8.33334H8.33333C7.83333 8.33334 7.41667 8.50001 7.16667 8.83334L2.5 13.3333" stroke="#1D3557" stroke-width="1.66667" stroke-linecap="round" stroke-linejoin="round"/>
<path d="M12.0417 11.1583L16.2501 7.24667C16.8301 6.66667 17.5001 5.70833 17.5001 4.79167C17.5002 4.32779 17.3595 3.87481 17.0967 3.49259C16.8338 3.11038 16.4612 2.81693 16.028 2.65104C15.5948 2.48515 15.1214 2.45462 14.6705 2.5635C14.2196 2.67238 13.8123 2.91554 13.5026 3.26083C13.481 3.28422 13.4549 3.30288 13.4258 3.31565C13.3967 3.32841 13.3652 3.335 13.3334 3.335C13.3016 3.335 13.2702 3.32841 13.2411 3.31565C13.2119 3.30288 13.1858 3.28422 13.1642 3.26083C12.8545 2.91554 12.4472 2.67238 11.9963 2.5635C11.5454 2.45462 11.0721 2.48515 10.6389 2.65104C10.2057 2.81693 9.83301 3.11038 9.57016 3.49259C9.30731 3.87481 9.16664 4.32779 9.16675 4.79167C9.16675 5.79167 9.83508 6.665 10.4167 7.24667L13.3334 9.95833" stroke="#1D3557" stroke-width="1.66667" stroke-linecap="round" stroke-linejoin="round"/>
<path d="M1.66675 12.5L6.66675 17.5" stroke="#1D3557" stroke-width="1.66667" stroke-linecap="round" stroke-linejoin="round"/>
<path d="M5.83325 16.6667L7.16659 15.5C7.41659 15.1667 7.83325 15 8.33325 15H11.6666C12.5833 15 13.4166 14.6667 13.9999 14L17.8333 10.3333C18.1548 10.0294 18.3425 9.61025 18.355 9.16798C18.3675 8.7257 18.2038 8.29658 17.8999 7.975C17.596 7.65343 17.1768 7.46575 16.7346 7.45324C16.2923 7.44074 15.8632 7.60444 15.5416 7.90834" stroke="#1D3557" stroke-width="1.66667" stroke-linecap="round" stroke-linejoin="round"/>
</svg>
