<svg preserveAspectRatio="none" width="100%" height="100%" overflow="visible" style="display: block;" viewBox="0 0 20 20" fill="none" xmlns="http://www.w3.org/2000/svg">
<g id="Icon">
<path id="Vector" d="M1.66667 7.91665C1.66668 6.98932 1.94799 6.0838 2.47344 5.3197C2.99889 4.5556 3.74376 3.96886 4.60967 3.63698C5.47558 3.3051 6.4218 3.24369 7.32334 3.46085C8.22489 3.67802 9.03935 4.16355 9.65917 4.85332C9.70282 4.89999 9.7556 4.93721 9.81423 4.96265C9.87286 4.98809 9.93609 5.00122 10 5.00122C10.0639 5.00122 10.1271 4.98809 10.1858 4.96265C10.2444 4.93721 10.2972 4.89999 10.3408 4.85332C10.9587 4.15907 11.7734 3.66946 12.6764 3.44965C13.5794 3.22985 14.5279 3.29027 15.3957 3.62289C16.2635 3.9555 17.0095 4.54453 17.5343 5.31157C18.059 6.07861 18.3378 6.98728 18.3333 7.91665C18.3333 9.82498 17.0833 11.25 15.8333 12.5L11.2567 16.9275C11.1014 17.1058 10.9099 17.2491 10.695 17.3477C10.4801 17.4464 10.2467 17.4982 10.0102 17.4997C9.77378 17.5012 9.53971 17.4523 9.32357 17.3564C9.10744 17.2605 8.91419 17.1197 8.75667 16.9433L4.16667 12.5C2.91667 11.25 1.66667 9.83332 1.66667 7.91665Z" stroke="var(--stroke-0, #E63946)" stroke-width="1.66667" stroke-linecap="round" stroke-linejoin="round"/>
</g>
</svg>
