<svg preserveAspectRatio="none" width="100%" height="100%" overflow="visible" style="display: block;" viewBox="0 0 32 34" fill="none" xmlns="http://www.w3.org/2000/svg">
<g id="Icon">
<path id="Vector" d="M2.66667 13.4583C2.66669 11.8819 3.11679 10.3425 3.95751 9.04354C4.79823 7.74457 5.99002 6.74711 7.37548 6.18291C8.76093 5.61871 10.2749 5.51431 11.7173 5.88349C13.1598 6.25268 14.463 7.07808 15.4547 8.25068C15.5245 8.33003 15.609 8.3933 15.7028 8.43655C15.7966 8.4798 15.8977 8.50212 16 8.50212C16.1023 8.50212 16.2034 8.4798 16.2972 8.43655C16.391 8.3933 16.4755 8.33003 16.5453 8.25068C17.5339 7.07046 18.8374 6.23812 20.2822 5.86445C21.727 5.49078 23.2447 5.5935 24.6332 6.15895C26.0217 6.72439 27.2152 7.72574 28.0548 9.02971C28.8945 10.3337 29.3404 11.8784 29.3333 13.4583C29.3333 16.7025 27.3333 19.125 25.3333 21.25L18.0107 28.7768C17.7622 29.0799 17.4559 29.3235 17.1121 29.4912C16.7682 29.6589 16.3947 29.747 16.0164 29.7495C15.638 29.7521 15.2635 29.669 14.9177 29.506C14.5719 29.3429 14.2627 29.1035 14.0107 28.8037L6.66667 21.25C4.66667 19.125 2.66667 16.7167 2.66667 13.4583Z" stroke="var(--stroke-0, #1D3557)" stroke-width="1.33333" stroke-linecap="round" stroke-linejoin="round"/>
</g>
</svg>
